<?xml version="1.0" standalone="no"?>
<!DOCTYPE svg PUBLIC "-//W3C//DTD SVG 20010904//EN"
 "http://www.w3.org/TR/2001/REC-SVG-20010904/DTD/svg10.dtd">
<svg version="1.0" xmlns="http://www.w3.org/2000/svg"
 width="1024.000000pt" height="1024.000000pt" viewBox="0 0 1024.000000 1024.000000"
 preserveAspectRatio="xMidYMid meet">
<metadata>
Created by potrace 1.11, written by Peter Selinger 2001-2013
</metadata>
<g transform="translate(0.000000,1024.000000) scale(0.100000,-0.100000)"
fill="#000000" stroke="none">
<path d="M5635 9561 c-3 -5 -2 -12 3 -15 5 -3 9 1 9 9 0 17 -3 19 -12 6z"/>
<path d="M4865 9529 c-33 -3 -79 -5 -102 -5 -24 1 -43 -1 -43 -4 0 -3 -10 -6
-22 -6 -22 -1 -106 -9 -178 -19 -83 -11 -108 -15 -160 -25 -30 -6 -66 -12 -80
-15 -70 -12 -89 -16 -140 -31 -30 -9 -74 -17 -97 -18 -22 0 -39 -4 -37 -7 2
-4 -18 -12 -44 -20 -26 -7 -49 -13 -52 -14 -3 -1 -25 -7 -50 -14 -86 -24 -318
-107 -397 -142 -24 -10 -45 -19 -47 -19 -5 0 -145 -64 -245 -113 -36 -17 -69
-31 -73 -29 -5 1 -8 -2 -8 -7 0 -5 -20 -17 -45 -28 -25 -10 -45 -21 -45 -25 0
-5 -5 -8 -11 -8 -6 0 -24 -9 -40 -21 -16 -11 -29 -17 -29 -12 0 4 -4 3 -8 -2
-15 -21 -144 -95 -154 -89 -6 4 -8 2 -5 -3 9 -14 -89 -77 -104 -67 -7 4 -9 3
-5 -4 3 -6 -29 -35 -75 -67 -44 -31 -88 -63 -97 -70 -34 -28 -101 -81 -133
-105 -18 -14 -37 -30 -43 -35 -78 -73 -147 -125 -157 -119 -8 5 -9 3 -4 -6 9
-15 -43 -63 -61 -56 -8 3 -11 -1 -8 -8 5 -13 -69 -96 -84 -96 -4 0 -13 -9 -20
-20 -7 -12 -18 -18 -24 -14 -7 4 -8 3 -4 -4 4 -6 -19 -39 -54 -74 -33 -35 -60
-67 -60 -72 0 -4 -7 -5 -16 -2 -9 3 -12 2 -9 -4 4 -6 -4 -22 -17 -36 -13 -14
-30 -34 -38 -43 -9 -9 -29 -34 -45 -56 -39 -52 -47 -62 -90 -114 -20 -24 -43
-57 -51 -72 -7 -15 -24 -35 -36 -43 -12 -9 -20 -16 -16 -16 4 0 -30 -56 -75
-124 -46 -68 -103 -161 -127 -205 -25 -44 -50 -79 -56 -77 -7 3 -10 -3 -7 -14
3 -10 -6 -35 -19 -56 -30 -48 -118 -230 -118 -244 0 -5 -4 -10 -8 -10 -5 0 -9
-6 -9 -12 0 -7 -12 -38 -26 -68 -23 -50 -38 -87 -42 -100 -8 -31 -18 -50 -26
-50 -6 0 -7 -5 -4 -10 4 -6 2 -16 -3 -23 -5 -7 -12 -23 -15 -37 -13 -58 -43
-130 -51 -123 -5 4 -6 2 -2 -5 8 -14 -2 -54 -12 -48 -4 2 -8 -14 -9 -36 0 -23
-5 -43 -10 -47 -4 -3 -9 -13 -10 -21 -2 -17 0 -11 -42 -175 -16 -66 -38 -164
-47 -217 -10 -53 -20 -95 -23 -94 -3 2 -6 -15 -7 -37 0 -23 -4 -64 -8 -92 -4
-27 -9 -59 -11 -70 -1 -11 -3 -37 -4 -58 -1 -25 -5 -36 -12 -31 -8 5 -8 1 0
-13 6 -11 8 -22 6 -24 -6 -6 -17 -175 -17 -247 0 -42 -3 -60 -10 -56 -7 5 -8
2 -3 -6 4 -7 9 -87 11 -179 2 -156 8 -271 19 -351 2 -19 7 -57 10 -85 9 -84
15 -128 27 -190 6 -33 12 -71 14 -85 9 -61 25 -135 60 -270 20 -80 37 -153 38
-162 0 -10 4 -18 8 -18 4 0 8 -6 8 -12 0 -7 14 -56 31 -108 17 -52 32 -99 34
-105 1 -5 7 -21 13 -35 6 -14 32 -78 57 -143 25 -65 50 -126 55 -135 36 -67
68 -141 63 -146 -4 -3 -2 -6 3 -6 6 0 18 -19 28 -41 59 -133 309 -539 393
-639 7 -8 14 -19 14 -25 1 -5 10 -16 21 -23 10 -7 16 -18 13 -23 -4 -5 -2 -9
3 -9 4 0 27 -24 50 -52 23 -29 47 -60 55 -68 7 -8 44 -51 82 -95 39 -44 115
-126 170 -183 55 -56 99 -107 97 -113 -1 -6 2 -8 7 -4 6 3 25 -8 43 -26 18
-17 60 -54 92 -83 32 -28 69 -60 81 -71 11 -11 30 -25 41 -32 10 -6 18 -16 16
-22 -1 -6 1 -10 5 -9 11 4 103 -63 103 -74 0 -4 4 -8 10 -8 13 0 100 -62 100
-72 0 -4 4 -8 9 -8 17 0 236 -151 234 -160 -2 -5 4 -7 11 -4 8 3 23 -3 34 -14
11 -11 22 -18 25 -16 2 2 19 -6 38 -19 19 -12 72 -42 119 -67 47 -24 95 -49
107 -55 13 -7 19 -16 15 -20 -4 -5 -2 -5 4 -2 7 4 44 -9 83 -28 39 -19 75 -35
81 -35 6 0 8 -5 4 -12 -4 -6 -3 -8 4 -5 5 4 39 -6 74 -21 34 -16 76 -32 91
-36 17 -4 25 -11 21 -18 -4 -6 -3 -8 4 -4 6 3 23 1 39 -6 15 -6 30 -12 33 -12
3 -1 25 -9 50 -18 156 -55 213 -72 415 -124 55 -14 103 -31 107 -37 6 -9 8 -8
8 2 0 8 6 11 18 6 9 -4 28 -9 42 -11 14 -3 32 -7 39 -10 8 -3 35 -7 60 -10 25
-3 48 -9 51 -12 3 -4 19 -7 35 -7 17 1 68 -5 115 -12 133 -19 284 -33 388 -33
34 -1 52 -5 52 -13 0 -9 2 -9 8 1 9 13 38 12 61 -2 9 -6 12 -5 8 1 -5 8 85 10
103 3 3 -1 10 -1 15 0 6 1 39 4 75 6 124 6 255 15 315 21 33 3 78 6 100 7 22
1 42 4 45 7 3 4 30 9 60 12 30 3 69 9 85 12 41 8 61 12 125 24 82 16 91 18
140 31 25 6 54 13 65 15 37 8 50 11 108 29 32 9 63 14 69 10 7 -4 8 -3 4 4 -4
7 -1 12 9 12 16 0 194 58 276 91 26 10 50 15 53 12 3 -4 6 -1 6 5 0 7 6 12 13
12 6 1 30 9 52 20 22 11 44 19 48 20 13 0 366 169 377 180 5 5 38 23 115 64
22 12 42 24 43 29 2 4 8 7 12 7 9 0 184 110 207 130 7 5 16 10 20 10 5 0 20
11 35 25 15 14 32 25 38 25 5 0 10 5 10 10 0 6 4 10 10 10 5 0 20 9 32 19 13
10 79 64 148 118 69 55 147 119 174 144 27 24 53 43 57 41 5 -1 8 1 7 5 -2 5
53 64 122 133 69 69 145 147 170 175 25 27 48 49 53 47 4 -1 6 1 5 5 -5 15 46
74 59 69 6 -3 10 0 7 7 -4 10 14 35 94 132 9 11 30 39 46 63 16 23 33 39 39
35 6 -4 7 -1 2 6 -4 7 1 22 12 34 31 36 115 161 149 222 9 17 22 37 29 45 7 8
25 39 40 67 15 30 32 50 38 46 5 -3 7 -1 4 4 -4 6 11 42 32 81 69 126 235 488
246 536 1 6 7 22 12 36 6 14 28 77 49 140 21 63 42 117 46 118 4 2 6 8 3 12
-3 5 8 62 26 126 17 64 33 128 35 143 3 14 7 33 10 41 3 8 8 29 10 45 3 17 8
37 11 45 3 8 7 29 8 46 2 17 5 44 9 60 6 32 11 64 21 139 4 28 8 61 10 75 4
25 18 190 19 223 0 9 3 17 6 17 3 0 5 60 5 133 0 72 4 138 8 145 6 7 5 12 -2
12 -13 0 -10 22 4 32 7 5 6 8 0 8 -7 0 -11 36 -12 93 -1 108 -9 205 -28 372
-17 146 -23 193 -30 215 -2 8 -7 31 -9 50 -9 61 -17 103 -25 124 -5 12 -8 33
-7 48 1 15 0 25 -3 23 -6 -7 -70 249 -64 258 2 4 -1 7 -6 7 -6 0 -11 8 -11 18
0 10 -18 69 -41 132 -22 63 -42 120 -43 125 -2 6 -8 21 -13 35 -6 14 -19 45
-28 70 -40 105 -188 423 -205 440 -16 16 -39 74 -33 83 3 7 3 9 -2 5 -8 -8
-19 7 -47 62 -7 14 -19 31 -26 39 -7 7 -10 21 -7 29 3 9 3 13 -1 9 -10 -10
-56 61 -48 75 4 6 3 8 -3 5 -14 -9 -56 61 -47 75 4 7 2 8 -4 4 -6 -4 -16 4
-23 16 -7 13 -15 25 -18 28 -4 3 -32 41 -64 86 -31 44 -63 87 -72 94 -8 7 -15
16 -15 21 0 5 -8 17 -17 27 -10 10 -31 35 -48 56 -16 22 -50 61 -75 89 -25 27
-49 56 -54 65 -5 9 -79 86 -165 171 -85 86 -154 160 -152 166 1 5 -1 7 -5 3
-6 -7 -78 51 -160 127 -12 11 -35 30 -50 42 -63 47 -150 113 -159 121 -5 4
-32 23 -60 42 -27 19 -55 40 -62 47 -7 6 -22 15 -33 18 -11 3 -20 11 -20 16 0
5 -7 9 -15 9 -8 0 -15 5 -15 10 0 6 -7 10 -16 10 -9 0 -12 5 -8 12 4 6 3 8 -3
5 -6 -4 -29 7 -52 23 -22 17 -43 30 -45 30 -3 0 -29 14 -58 31 -91 55 -120 70
-248 135 -118 59 -256 124 -264 124 -3 0 -26 10 -53 22 -26 11 -52 22 -58 23
-5 2 -34 13 -64 24 -29 12 -104 37 -165 57 -61 19 -119 39 -128 44 -10 6 -26
10 -37 10 -11 0 -32 5 -48 12 -15 6 -34 10 -40 9 -7 -1 -13 2 -13 6 0 4 -13 9
-29 10 -15 1 -66 11 -112 23 -47 11 -98 22 -114 25 -17 3 -49 7 -72 11 -24 4
-41 9 -39 13 2 3 -12 6 -32 7 -21 0 -62 4 -92 7 -30 4 -75 10 -100 13 -25 3
-61 7 -80 10 -118 15 -575 24 -685 13z"/>
<path d="M1066 6962 c-3 -5 1 -9 9 -9 8 0 12 4 9 9 -3 4 -7 8 -9 8 -2 0 -6 -4
-9 -8z"/>
<path d="M9036 3007 c3 -10 9 -15 12 -12 3 3 0 11 -7 18 -10 9 -11 8 -5 -6z"/>
<path d="M3355 1009 c-4 -6 -5 -12 -2 -15 2 -3 7 2 10 11 7 17 1 20 -8 4z"/>
</g>
</svg>
